<svg width="20" height="20" viewBox="0 0 20 20" fill="none" xmlns="http://www.w3.org/2000/svg">
<path d="M10 1.66666C11.0943 1.66666 12.178 1.8822 13.189 2.30099C14.2001 2.71978 15.1187 3.33361 15.8926 4.10744C16.6664 4.88126 17.2802 5.79992 17.699 6.81096C18.1178 7.82201 18.3333 8.90565 18.3333 10M10 1.66666V9.99999M10 1.66666C5.39763 1.66666 1.66667 5.39762 1.66667 9.99999C1.66667 14.6024 5.39763 18.3333 10 18.3333C14.6024 18.3333 18.3333 14.6024 18.3333 10M10 1.66666C14.6024 1.66666 18.3333 5.39762 18.3333 10M18.3333 10L10 9.99999M18.3333 10C18.3333 11.3151 18.0221 12.6115 17.4251 13.7832C16.828 14.955 15.9621 15.9688 14.8982 16.7418L10 9.99999" stroke="#717680" stroke-width="1.39167" stroke-linecap="round" stroke-linejoin="round"/>
</svg>
