<svg width="20" height="20" viewBox="0 0 20 20" fill="none" xmlns="http://www.w3.org/2000/svg">
<path d="M14.7873 2.34399C15.5913 1.51359 16.9196 1.50285 17.7369 2.32014C18.5318 3.11503 18.5466 4.39918 17.7703 5.21218L15.4547 7.63698C15.2732 7.82704 15.1825 7.92207 15.1265 8.03337C15.077 8.1319 15.0476 8.23927 15.0399 8.34927C15.0312 8.47352 15.0607 8.60156 15.1198 8.85763L16.5597 15.0973C16.6204 15.3601 16.6507 15.4915 16.6409 15.6187C16.6322 15.7312 16.6008 15.8408 16.5485 15.9408C16.4895 16.0538 16.3941 16.1491 16.2033 16.3399L15.8944 16.6489C15.3892 17.154 15.1367 17.4065 14.8782 17.4523C14.6525 17.4922 14.4203 17.4374 14.2362 17.3007C14.0255 17.1442 13.9125 16.8054 13.6866 16.1277L12.0118 11.1033L9.22408 13.891C9.05767 14.0575 8.97447 14.1407 8.91881 14.2386C8.86951 14.3254 8.8362 14.4204 8.82047 14.519C8.80273 14.6303 8.81572 14.7472 8.84171 14.9811L8.9948 16.3589C9.02079 16.5928 9.03378 16.7098 9.01603 16.821C9.00031 16.9196 8.967 17.0146 8.91769 17.1014C8.86204 17.1994 8.77883 17.2826 8.61243 17.449L8.44784 17.6136C8.05363 18.0078 7.85652 18.2049 7.63748 18.262C7.44536 18.312 7.24167 18.2919 7.0631 18.2051C6.85951 18.1062 6.70488 17.8742 6.39563 17.4104L5.0887 15.4499C5.03345 15.3671 5.00582 15.3256 4.97375 15.2881C4.94526 15.2547 4.91418 15.2236 4.88079 15.1951C4.84321 15.163 4.80177 15.1354 4.7189 15.0801L2.7585 13.7732C2.29462 13.464 2.06269 13.3093 1.96375 13.1057C1.87698 12.9272 1.85681 12.7235 1.90688 12.5314C1.96396 12.3123 2.16107 12.1152 2.55529 11.721L2.71987 11.5564C2.88628 11.39 2.96948 11.3068 3.06746 11.2512C3.15427 11.2018 3.24922 11.1685 3.34781 11.1528C3.45908 11.1351 3.57603 11.1481 3.80992 11.174L5.18775 11.3271C5.42164 11.3531 5.53859 11.3661 5.64987 11.3484C5.74845 11.3327 5.84341 11.2993 5.93021 11.25C6.02819 11.1944 6.11139 11.1112 6.2778 10.9448L9.06557 8.157L4.04117 6.4822C3.36348 6.25631 3.02463 6.14336 2.86814 5.9326C2.73149 5.74857 2.67667 5.51637 2.7166 5.29066C2.76232 5.03216 3.01488 4.7796 3.52 4.27448L3.82897 3.96551C4.01972 3.77476 4.11509 3.67939 4.22808 3.62031C4.32809 3.56803 4.43768 3.5366 4.5502 3.52793C4.67733 3.51814 4.80875 3.54847 5.07159 3.60913L11.2875 5.04358C11.5458 5.10318 11.675 5.13299 11.7997 5.12412C11.9201 5.11556 12.0371 5.08095 12.1428 5.02269C12.2523 4.96234 12.3445 4.86712 12.5289 4.67667L14.7873 2.34399Z" stroke="#717680" stroke-width="1.39167" stroke-linecap="round" stroke-linejoin="round"/>
</svg>
