<svg width="19" height="10" viewBox="0 0 19 10" fill="none" xmlns="http://www.w3.org/2000/svg">
<path d="M2.27699 9.19602C1.9304 9.19602 1.61222 9.1108 1.32244 8.94034C1.03267 8.76705 0.802557 8.53693 0.632102 8.25C0.461648 7.96023 0.376421 7.64205 0.376421 7.29545C0.376421 6.94602 0.461648 6.62784 0.632102 6.34091C0.802557 6.05114 1.03267 5.8196 1.32244 5.64631C1.61222 5.47301 1.9304 5.38636 2.27699 5.38636H3.21449V3.87784H2.27699C1.9304 3.87784 1.61222 3.79261 1.32244 3.62216C1.03267 3.4517 0.802557 3.22301 0.632102 2.93608C0.461648 2.64631 0.376421 2.3267 0.376421 1.97727C0.376421 1.62784 0.461648 1.30966 0.632102 1.02273C0.802557 0.735795 1.03267 0.507102 1.32244 0.336647C1.61222 0.163352 1.9304 0.076704 2.27699 0.076704C2.62642 0.076704 2.9446 0.163352 3.23153 0.336647C3.52131 0.507102 3.75142 0.735795 3.92188 1.02273C4.09517 1.30966 4.18182 1.62784 4.18182 1.97727V2.90625H5.6946V1.97727C5.6946 1.62784 5.77983 1.30966 5.95028 1.02273C6.12074 0.735795 6.34943 0.507102 6.63636 0.336647C6.92614 0.163352 7.24574 0.076704 7.59517 0.076704C7.9446 0.076704 8.26278 0.163352 8.54972 0.336647C8.83665 0.507102 9.06534 0.735795 9.2358 1.02273C9.40625 1.30966 9.49148 1.62784 9.49148 1.97727C9.49148 2.3267 9.40625 2.64631 9.2358 2.93608C9.06534 3.22301 8.83665 3.4517 8.54972 3.62216C8.26278 3.79261 7.9446 3.87784 7.59517 3.87784H6.66193V5.38636H7.59517C7.9446 5.38636 8.26278 5.47301 8.54972 5.64631C8.83665 5.8196 9.06534 6.05114 9.2358 6.34091C9.40625 6.62784 9.49148 6.94602 9.49148 7.29545C9.49148 7.64205 9.40625 7.96023 9.2358 8.25C9.06534 8.53693 8.83665 8.76705 8.54972 8.94034C8.26278 9.1108 7.9446 9.19602 7.59517 9.19602C7.24574 9.19602 6.92614 9.1108 6.63636 8.94034C6.34943 8.76705 6.12074 8.53693 5.95028 8.25C5.77983 7.96023 5.6946 7.64205 5.6946 7.29545V6.35795H4.18182V7.29545C4.18182 7.64205 4.09517 7.96023 3.92188 8.25C3.75142 8.53693 3.52131 8.76705 3.23153 8.94034C2.9446 9.1108 2.62642 9.19602 2.27699 9.19602ZM2.27699 8.22443C2.45028 8.22443 2.60653 8.18324 2.74574 8.10085C2.88778 8.01847 3.00142 7.90625 3.08665 7.7642C3.17188 7.62216 3.21449 7.46591 3.21449 7.29545V6.35795H2.27699C2.10653 6.35795 1.95028 6.40057 1.80824 6.4858C1.66619 6.56818 1.55256 6.6804 1.46733 6.82244C1.38494 6.96449 1.34375 7.12216 1.34375 7.29545C1.34375 7.46591 1.38494 7.62216 1.46733 7.7642C1.55256 7.90625 1.66619 8.01847 1.80824 8.10085C1.95028 8.18324 2.10653 8.22443 2.27699 8.22443ZM2.27699 2.90625H3.21449V1.97727C3.21449 1.80398 3.17188 1.64773 3.08665 1.50852C3.00142 1.36648 2.88778 1.25426 2.74574 1.17188C2.60653 1.08949 2.45028 1.0483 2.27699 1.0483C2.10653 1.0483 1.95028 1.08949 1.80824 1.17188C1.66619 1.25426 1.55256 1.36648 1.46733 1.50852C1.38494 1.64773 1.34375 1.80398 1.34375 1.97727C1.34375 2.15057 1.38494 2.30824 1.46733 2.45028C1.55256 2.58949 1.66619 2.70028 1.80824 2.78267C1.95028 2.86506 2.10653 2.90625 2.27699 2.90625ZM6.66193 2.90625H7.59517C7.76847 2.90625 7.92472 2.86506 8.06392 2.78267C8.20313 2.70028 8.31392 2.58949 8.39631 2.45028C8.48153 2.30824 8.52415 2.15057 8.52415 1.97727C8.52415 1.80398 8.48153 1.64773 8.39631 1.50852C8.31392 1.36648 8.20313 1.25426 8.06392 1.17188C7.92472 1.08949 7.76847 1.0483 7.59517 1.0483C7.42188 1.0483 7.2642 1.08949 7.12216 1.17188C6.98011 1.25426 6.8679 1.36648 6.78551 1.50852C6.70312 1.64773 6.66193 1.80398 6.66193 1.97727V2.90625ZM7.59517 8.22443C7.76847 8.22443 7.92472 8.18324 8.06392 8.10085C8.20313 8.01847 8.31392 7.90625 8.39631 7.7642C8.48153 7.62216 8.52415 7.46591 8.52415 7.29545C8.52415 7.12216 8.48153 6.96449 8.39631 6.82244C8.31392 6.6804 8.20313 6.56818 8.06392 6.4858C7.92472 6.40057 7.76847 6.35795 7.59517 6.35795H6.66193V7.29545C6.66193 7.46591 6.70312 7.62216 6.78551 7.7642C6.8679 7.90625 6.98011 8.01847 7.12216 8.10085C7.2642 8.18324 7.42188 8.22443 7.59517 8.22443ZM4.18182 5.38636H5.6946V3.87784H4.18182V5.38636ZM11.8299 9V0.272727H13.1467V4.44034H13.2532L16.9137 0.272727H18.5714L15.0515 4.2017L18.5842 9H16.9989L14.1779 5.10085L13.1467 6.28551V9H11.8299Z" fill="#717680"/>
</svg>
